<mxfile host="app.diagrams.net" modified="2020-10-13T12:36:49.979Z" agent="5.0 (X11; Linux x86_64) AppleWebKit/537.36 (KHTML, like Gecko) Chrome/84.0.4147.135 Safari/537.36" etag="3R5FvU6eNV8o73zAWgKV" version="13.7.9" type="github">
  <diagram id="L8QtokBy4twJuRu05DtB" name="Page-1">
    <mxGraphModel dx="1353" dy="963" grid="1" gridSize="10" guides="1" tooltips="1" connect="1" arrows="1" fold="1" page="1" pageScale="1" pageWidth="1169" pageHeight="1654" math="0" shadow="0">
      <root>
        <mxCell id="0" />
        <mxCell id="1" parent="0" />
        <mxCell id="eP4H6YxavovyAiAuoGYv-5" value="" style="group" vertex="1" connectable="0" parent="1">
          <mxGeometry x="140" y="917" width="315" height="60" as="geometry" />
        </mxCell>
        <mxCell id="eP4H6YxavovyAiAuoGYv-1" value="&lt;font style=&quot;font-size: 24px&quot;&gt;3&lt;/font&gt;" style="rounded=0;whiteSpace=wrap;html=1;" vertex="1" parent="eP4H6YxavovyAiAuoGYv-5">
          <mxGeometry width="105" height="60" as="geometry" />
        </mxCell>
        <mxCell id="eP4H6YxavovyAiAuoGYv-2" value="&lt;font style=&quot;font-size: 24px&quot;&gt;3&lt;/font&gt;" style="rounded=0;whiteSpace=wrap;html=1;" vertex="1" parent="eP4H6YxavovyAiAuoGYv-5">
          <mxGeometry x="105" width="105" height="60" as="geometry" />
        </mxCell>
        <mxCell id="eP4H6YxavovyAiAuoGYv-4" value="&lt;font style=&quot;font-size: 24px&quot;&gt;3&lt;/font&gt;" style="rounded=0;whiteSpace=wrap;html=1;" vertex="1" parent="eP4H6YxavovyAiAuoGYv-5">
          <mxGeometry x="210" width="105" height="60" as="geometry" />
        </mxCell>
        <mxCell id="eP4H6YxavovyAiAuoGYv-10" value="&lt;font style=&quot;font-size: 24px&quot;&gt;0&lt;/font&gt;" style="rounded=0;whiteSpace=wrap;html=1;" vertex="1" parent="1">
          <mxGeometry x="140" y="770" width="105" height="60" as="geometry" />
        </mxCell>
        <mxCell id="eP4H6YxavovyAiAuoGYv-12" value="" style="group" vertex="1" connectable="0" parent="1">
          <mxGeometry x="140" y="840" width="210" height="60" as="geometry" />
        </mxCell>
        <mxCell id="eP4H6YxavovyAiAuoGYv-7" value="&lt;font style=&quot;font-size: 24px&quot;&gt;7&lt;/font&gt;" style="rounded=0;whiteSpace=wrap;html=1;" vertex="1" parent="eP4H6YxavovyAiAuoGYv-12">
          <mxGeometry width="105" height="60" as="geometry" />
        </mxCell>
        <mxCell id="eP4H6YxavovyAiAuoGYv-8" value="&lt;font style=&quot;font-size: 24px&quot;&gt;7&lt;/font&gt;" style="rounded=0;whiteSpace=wrap;html=1;" vertex="1" parent="eP4H6YxavovyAiAuoGYv-12">
          <mxGeometry x="105" width="105" height="60" as="geometry" />
        </mxCell>
        <mxCell id="eP4H6YxavovyAiAuoGYv-20" value="" style="group" vertex="1" connectable="0" parent="1">
          <mxGeometry x="170" y="190" width="315" height="60" as="geometry" />
        </mxCell>
        <mxCell id="eP4H6YxavovyAiAuoGYv-21" value="&lt;font style=&quot;font-size: 24px&quot;&gt;2&lt;/font&gt;" style="rounded=0;whiteSpace=wrap;html=1;" vertex="1" parent="eP4H6YxavovyAiAuoGYv-20">
          <mxGeometry width="105" height="60" as="geometry" />
        </mxCell>
        <mxCell id="eP4H6YxavovyAiAuoGYv-24" value="" style="group" vertex="1" connectable="0" parent="1">
          <mxGeometry x="210" y="370" width="315" height="60" as="geometry" />
        </mxCell>
        <mxCell id="eP4H6YxavovyAiAuoGYv-25" value="&lt;span style=&quot;font-size: 24px&quot;&gt;3&lt;/span&gt;" style="rounded=0;whiteSpace=wrap;html=1;" vertex="1" parent="eP4H6YxavovyAiAuoGYv-24">
          <mxGeometry width="105" height="60" as="geometry" />
        </mxCell>
        <mxCell id="eP4H6YxavovyAiAuoGYv-26" value="" style="rounded=0;whiteSpace=wrap;html=1;" vertex="1" parent="eP4H6YxavovyAiAuoGYv-24">
          <mxGeometry x="105" width="105" height="60" as="geometry" />
        </mxCell>
        <mxCell id="eP4H6YxavovyAiAuoGYv-30" style="edgeStyle=orthogonalEdgeStyle;rounded=0;orthogonalLoop=1;jettySize=auto;html=1;exitX=0;exitY=1;exitDx=0;exitDy=0;" edge="1" parent="1" source="eP4H6YxavovyAiAuoGYv-21" target="eP4H6YxavovyAiAuoGYv-16">
          <mxGeometry relative="1" as="geometry" />
        </mxCell>
        <mxCell id="eP4H6YxavovyAiAuoGYv-31" style="edgeStyle=orthogonalEdgeStyle;rounded=0;orthogonalLoop=1;jettySize=auto;html=1;exitX=1;exitY=1;exitDx=0;exitDy=0;entryX=0.5;entryY=0;entryDx=0;entryDy=0;" edge="1" parent="1" source="eP4H6YxavovyAiAuoGYv-21" target="eP4H6YxavovyAiAuoGYv-25">
          <mxGeometry relative="1" as="geometry" />
        </mxCell>
        <mxCell id="eP4H6YxavovyAiAuoGYv-32" style="edgeStyle=orthogonalEdgeStyle;rounded=0;orthogonalLoop=1;jettySize=auto;html=1;entryX=0.423;entryY=0.024;entryDx=0;entryDy=0;entryPerimeter=0;exitX=0;exitY=1;exitDx=0;exitDy=0;" edge="1" parent="1" source="eP4H6YxavovyAiAuoGYv-52" target="eP4H6YxavovyAiAuoGYv-41">
          <mxGeometry relative="1" as="geometry">
            <mxPoint x="681.8650000000002" y="368.3800000000001" as="targetPoint" />
            <mxPoint x="480" y="270" as="sourcePoint" />
          </mxGeometry>
        </mxCell>
        <mxCell id="eP4H6YxavovyAiAuoGYv-16" value="&lt;span style=&quot;font-size: 24px&quot;&gt;1&lt;/span&gt;" style="rounded=0;whiteSpace=wrap;html=1;" vertex="1" parent="1">
          <mxGeometry x="60" y="370" width="105" height="60" as="geometry" />
        </mxCell>
        <mxCell id="eP4H6YxavovyAiAuoGYv-41" value="&lt;span style=&quot;font-size: 24px&quot;&gt;5&lt;/span&gt;" style="rounded=0;whiteSpace=wrap;html=1;" vertex="1" parent="1">
          <mxGeometry x="572" y="370" width="105" height="60" as="geometry" />
        </mxCell>
        <mxCell id="eP4H6YxavovyAiAuoGYv-42" style="edgeStyle=orthogonalEdgeStyle;rounded=0;orthogonalLoop=1;jettySize=auto;html=1;exitX=0;exitY=1;exitDx=0;exitDy=0;entryX=0.25;entryY=0;entryDx=0;entryDy=0;" edge="1" parent="1" source="eP4H6YxavovyAiAuoGYv-53" target="eP4H6YxavovyAiAuoGYv-34">
          <mxGeometry relative="1" as="geometry">
            <mxPoint x="485" y="250" as="sourcePoint" />
            <Array as="points">
              <mxPoint x="655" y="280" />
              <mxPoint x="801" y="280" />
            </Array>
          </mxGeometry>
        </mxCell>
        <mxCell id="eP4H6YxavovyAiAuoGYv-35" value="" style="group" vertex="1" connectable="0" parent="1">
          <mxGeometry x="670" y="370" width="210" height="60" as="geometry" />
        </mxCell>
        <mxCell id="eP4H6YxavovyAiAuoGYv-34" value="&lt;span style=&quot;font-size: 24px&quot;&gt;7&lt;/span&gt;" style="rounded=0;whiteSpace=wrap;html=1;" vertex="1" parent="eP4H6YxavovyAiAuoGYv-35">
          <mxGeometry x="105" width="105" height="60" as="geometry" />
        </mxCell>
        <mxCell id="eP4H6YxavovyAiAuoGYv-56" style="edgeStyle=orthogonalEdgeStyle;rounded=0;orthogonalLoop=1;jettySize=auto;html=1;exitX=1;exitY=1;exitDx=0;exitDy=0;entryX=0.584;entryY=0.015;entryDx=0;entryDy=0;entryPerimeter=0;" edge="1" parent="1" source="eP4H6YxavovyAiAuoGYv-51" target="eP4H6YxavovyAiAuoGYv-52">
          <mxGeometry relative="1" as="geometry" />
        </mxCell>
        <mxCell id="eP4H6YxavovyAiAuoGYv-57" style="edgeStyle=orthogonalEdgeStyle;rounded=0;orthogonalLoop=1;jettySize=auto;html=1;exitX=0;exitY=1;exitDx=0;exitDy=0;entryX=0.5;entryY=0;entryDx=0;entryDy=0;" edge="1" parent="1" source="eP4H6YxavovyAiAuoGYv-51" target="eP4H6YxavovyAiAuoGYv-21">
          <mxGeometry relative="1" as="geometry" />
        </mxCell>
        <mxCell id="eP4H6YxavovyAiAuoGYv-51" value="&lt;font style=&quot;font-size: 24px&quot;&gt;4&lt;/font&gt;" style="rounded=0;whiteSpace=wrap;html=1;" vertex="1" parent="1">
          <mxGeometry x="275" y="40" width="105" height="60" as="geometry" />
        </mxCell>
        <mxCell id="eP4H6YxavovyAiAuoGYv-52" value="&lt;span style=&quot;font-size: 24px&quot;&gt;6&lt;/span&gt;" style="rounded=0;whiteSpace=wrap;html=1;" vertex="1" parent="1">
          <mxGeometry x="550" y="170" width="105" height="60" as="geometry" />
        </mxCell>
        <mxCell id="eP4H6YxavovyAiAuoGYv-55" style="edgeStyle=orthogonalEdgeStyle;rounded=0;orthogonalLoop=1;jettySize=auto;html=1;exitX=1;exitY=1;exitDx=0;exitDy=0;entryX=0.5;entryY=0;entryDx=0;entryDy=0;" edge="1" parent="1" source="eP4H6YxavovyAiAuoGYv-53" target="eP4H6YxavovyAiAuoGYv-54">
          <mxGeometry relative="1" as="geometry">
            <Array as="points">
              <mxPoint x="870" y="230" />
              <mxPoint x="870" y="300" />
              <mxPoint x="983" y="300" />
            </Array>
          </mxGeometry>
        </mxCell>
        <mxCell id="eP4H6YxavovyAiAuoGYv-53" value="&lt;font style=&quot;font-size: 24px&quot;&gt;8&lt;/font&gt;" style="rounded=0;whiteSpace=wrap;html=1;" vertex="1" parent="1">
          <mxGeometry x="655" y="170" width="105" height="60" as="geometry" />
        </mxCell>
        <mxCell id="eP4H6YxavovyAiAuoGYv-54" value="&lt;span style=&quot;font-size: 24px&quot;&gt;9&lt;/span&gt;" style="rounded=0;whiteSpace=wrap;html=1;" vertex="1" parent="1">
          <mxGeometry x="930" y="370" width="105" height="60" as="geometry" />
        </mxCell>
        <mxCell id="eP4H6YxavovyAiAuoGYv-58" value="&lt;span style=&quot;font-size: 24px&quot;&gt;10&lt;/span&gt;" style="rounded=0;whiteSpace=wrap;html=1;" vertex="1" parent="1">
          <mxGeometry x="1035" y="370" width="105" height="60" as="geometry" />
        </mxCell>
        <mxCell id="eP4H6YxavovyAiAuoGYv-59" value="&lt;font style=&quot;font-size: 24px&quot;&gt;search(t, 1) == 3&lt;br&gt;search(t, 7) == 4&lt;br&gt;search(t, 9) == 4&lt;br&gt;search(t, 13) == 5&lt;br&gt;&lt;br&gt;&lt;/font&gt;" style="text;html=1;strokeColor=none;fillColor=none;align=center;verticalAlign=middle;whiteSpace=wrap;rounded=0;" vertex="1" parent="1">
          <mxGeometry x="780" y="40" width="203" height="120" as="geometry" />
        </mxCell>
      </root>
    </mxGraphModel>
  </diagram>
</mxfile>
